<svg width="50" height="51" viewBox="0 0 50 51" fill="none" xmlns="http://www.w3.org/2000/svg">
  <g opacity="0.85">
    <circle cx="24.7379" cy="25.7364" r="17.3913" transform="rotate(-16 24.7379 25.7364)" stroke="#CFDAE6" stroke-width="0.8"/>
    <path d="M20.2886 10.3228L20.6647 10.215L20.5569 9.83885L20.1807 9.9467L20.2886 10.3228ZM9.42974 20.8524L9.05718 20.7328L8.93753 21.1053L9.31009 21.225L9.42974 20.8524ZM20.5043 11.0751L20.6122 11.4513L20.9883 11.3434L20.8805 10.9673L20.5043 11.0751ZM10.1749 21.0917L10.0552 21.4643L10.4278 21.5839L10.5474 21.2113L10.1749 21.0917ZM29.133 41.1668L28.7568 41.2747L28.8647 41.6508L29.2408 41.543L29.133 41.1668ZM40.2113 29.8923L40.5892 29.9938L40.6907 29.6159L40.3128 29.5144L40.2113 29.8923ZM28.9172 40.4145L28.8094 40.0384L28.4332 40.1462L28.5411 40.5224L28.9172 40.4145ZM39.4555 29.6893L39.557 29.3114L39.1791 29.2099L39.0776 29.5879L39.4555 29.6893ZM20.1807 9.9467C14.7033 11.5173 10.6769 15.6894 9.05718 20.7328L9.8023 20.9721C11.3456 16.1667 15.1805 12.1946 20.3964 10.699L20.1807 9.9467ZM20.8805 10.9673L20.6647 10.215L19.9124 10.4307L20.1282 11.183L20.8805 10.9673ZM10.5474 21.2113C12.0142 16.644 15.6577 12.8719 20.6122 11.4513L20.3964 10.699C15.1805 12.1946 11.3456 16.1667 9.8023 20.9721L10.5474 21.2113ZM9.31009 21.225L10.0552 21.4643L10.2945 20.7191L9.54939 20.4798L9.31009 21.225ZM29.2408 41.543C34.9923 39.8938 39.1436 35.3768 40.5892 29.9938L39.8334 29.7908C38.456 34.9197 34.5018 39.2203 29.0251 40.7907L29.2408 41.543ZM28.5411 40.5224L28.7568 41.2747L29.5091 41.059L29.2934 40.3067L28.5411 40.5224ZM39.0776 29.5879C37.7684 34.4625 34.0114 38.5467 28.8094 40.0384L29.0251 40.7907C34.5018 39.2203 38.456 34.9197 39.8334 29.7908L39.0776 29.5879ZM40.3128 29.5144L39.557 29.3114L39.354 30.0673L40.1098 30.2702L40.3128 29.5144Z" fill="#DDE4EB"/>
    <circle cx="19.9445" cy="9.01905" r="2.6087" transform="rotate(-16 19.9445 9.01905)" fill="#F0F2F5" stroke="#CFDAE6" stroke-width="0.869565"/>
    <circle cx="41.4552" cy="20.9409" r="2.6087" transform="rotate(-16 41.4552 20.9409)" fill="#CFDAE6"/>
    <circle cx="8.02064" cy="30.5308" r="2.6087" transform="rotate(-16 8.02064 30.5308)" fill="#F7E1AD"/>
    <circle cx="29.5314" cy="42.4526" r="2.6087" transform="rotate(-16 29.5314 42.4526)" fill="#CFDAE6"/>
  </g>
</svg>
